<svg width="61" height="56" viewBox="0 0 61 56" fill="none" xmlns="http://www.w3.org/2000/svg">
<path d="M0.00624468 16.1184C-0.101042 11.0009 1.1569 5.92816 5.11308 2.90925C9.94767 -0.783022 18.0974 0.434621 22.934 4.12128C27.77 7.81356 30.0579 13.2398 31.9555 18.4808C32.7333 14.0927 33.5782 9.56432 36.3877 5.7991C39.1973 2.03388 44.5347 -0.777432 49.7046 0.193333C54.2911 1.05187 57.5231 4.58146 59.1861 8.26251C62.921 16.5112 60.5473 26.0337 55.1762 33.6242C48.8866 42.5041 37.8361 49.0969 28.8375 56C18.7425 47.4488 6.97651 39.777 2.40008 27.992C1.16361 24.8104 0.0967675 20.4448 0.00624468 16.1184" fill="#FF28C3"/>
<path d="M25.96 22.928C24.76 23.048 23.488 23.384 22.144 23.936C20.824 24.464 19.348 25.148 17.716 25.988C16.084 26.828 14.884 27.404 14.116 27.716C15.268 28.34 16.936 29.036 19.12 29.804C21.304 30.548 23.08 31.208 24.448 31.784C25.816 32.336 26.5 32.84 26.5 33.296C26.5 34.04 26.104 34.856 25.312 35.744C24.544 36.608 23.716 37.268 22.828 37.724C22.06 36.908 20.992 36.14 19.624 35.42C18.256 34.7 16.528 33.848 14.44 32.864C12.376 31.88 10.888 31.148 9.976 30.668C9.064 30.188 8.464 29.528 8.176 28.688C7.888 27.848 7.732 26.804 7.708 25.556C8.836 25.484 10.228 25.016 11.884 24.152C13.54 23.288 15.064 22.352 16.456 21.344C20.128 18.704 22.42 17.384 23.332 17.384C24.052 17.384 24.664 17.972 25.168 19.148C25.696 20.324 25.96 21.584 25.96 22.928ZM34.6503 32.324C35.8503 32.204 37.1103 31.88 38.4303 31.352C39.7743 30.8 41.2623 30.104 42.8943 29.264C44.5263 28.424 45.7263 27.848 46.4943 27.536C45.3423 26.912 43.6743 26.228 41.4903 25.484C39.3063 24.716 37.5303 24.056 36.1623 23.504C34.7943 22.928 34.1103 22.412 34.1103 21.956C34.1103 21.212 34.4943 20.408 35.2623 19.544C36.0543 18.656 36.8943 17.984 37.7823 17.528C38.5503 18.344 39.6183 19.112 40.9863 19.832C42.3543 20.552 44.0703 21.404 46.1343 22.388C48.2223 23.372 49.7223 24.104 50.6343 24.584C51.5463 25.064 52.1463 25.724 52.4343 26.564C52.7223 27.404 52.8783 28.448 52.9023 29.696C51.7743 29.768 50.3823 30.236 48.7263 31.1C47.0703 31.964 45.5463 32.888 44.1543 33.872C40.4823 36.536 38.1903 37.868 37.2783 37.868C36.5583 37.868 35.9343 37.28 35.4063 36.104C34.9023 34.928 34.6503 33.668 34.6503 32.324Z" fill="white"/>
</svg>
